<mxfile host="65bd71144e">
    <diagram name="Страница — 1" id="MHpBdJXiEZs-bnn1Wk0y">
        <mxGraphModel dx="133" dy="689" grid="1" gridSize="1" guides="1" tooltips="1" connect="1" arrows="1" fold="1" page="1" pageScale="1" pageWidth="827" pageHeight="1169" math="0" shadow="0">
            <root>
                <mxCell id="0"/>
                <mxCell id="1" parent="0"/>
                <mxCell id="KBLDiju2WBnaZNLSjC8g-6" value="&lt;h1&gt;&lt;font color=&quot;#66cc00&quot;&gt;Справочник диетолога&lt;/font&gt;&lt;/h1&gt;" style="rounded=0;whiteSpace=wrap;html=1;fillColor=#D4EBBC;" parent="1" vertex="1">
                    <mxGeometry width="827" height="103" as="geometry"/>
                </mxCell>
                <mxCell id="KBLDiju2WBnaZNLSjC8g-9" value="" style="rounded=0;whiteSpace=wrap;html=1;fillColor=#F3FDE8;" parent="1" vertex="1">
                    <mxGeometry x="160" y="105" width="827" height="1063" as="geometry"/>
                </mxCell>
                <mxCell id="KBLDiju2WBnaZNLSjC8g-7" value="" style="sketch=0;outlineConnect=0;fontColor=#232F3E;gradientColor=none;fillColor=#66CC00;strokeColor=none;dashed=0;verticalLabelPosition=bottom;verticalAlign=top;align=center;html=1;fontSize=12;fontStyle=0;aspect=fixed;pointerEvents=1;shape=mxgraph.aws4.container_registry_image;" parent="1" vertex="1">
                    <mxGeometry x="34" y="9" width="79" height="79" as="geometry"/>
                </mxCell>
                <mxCell id="KBLDiju2WBnaZNLSjC8g-11" value="&lt;h2&gt;&lt;font face=&quot;Georgia&quot; color=&quot;#57290e&quot;&gt;АВТОРИЗАЦИЯ&lt;/font&gt;&lt;/h2&gt;" style="text;html=1;align=center;verticalAlign=middle;whiteSpace=wrap;rounded=0;" parent="1" vertex="1">
                    <mxGeometry x="337" y="184" width="152" height="30" as="geometry"/>
                </mxCell>
                <mxCell id="KBLDiju2WBnaZNLSjC8g-12" value="&lt;sup style=&quot;font-size: 14px;&quot;&gt;&lt;font face=&quot;Georgia&quot;&gt;&lt;span style=&quot;&quot;&gt;&lt;font style=&quot;font-size: 14px;&quot; color=&quot;#57290e&quot;&gt;Пароль&lt;/font&gt;&lt;/span&gt;&lt;font style=&quot;font-size: 14px;&quot; color=&quot;#ff0000&quot;&gt;*&lt;/font&gt;&lt;/font&gt;&lt;/sup&gt;" style="fillColor=none;strokeColor=none;html=1;fontSize=11;fontStyle=0;align=left;fontColor=#596780;fontStyle=1;fontSize=11" parent="1" vertex="1">
                    <mxGeometry x="269" y="303" width="240" height="20" as="geometry"/>
                </mxCell>
                <mxCell id="KBLDiju2WBnaZNLSjC8g-13" value="&lt;font style=&quot;font-size: 14px;&quot; color=&quot;#57290e&quot;&gt;••••••••&lt;/font&gt;" style="rounded=1;arcSize=9;align=left;spacingLeft=5;strokeColor=#66CC00;html=1;strokeWidth=2;fontSize=12" parent="1" vertex="1">
                    <mxGeometry x="269" y="328" width="290" height="33" as="geometry"/>
                </mxCell>
                <mxCell id="KBLDiju2WBnaZNLSjC8g-14" value="&lt;sup style=&quot;font-size: 14px;&quot;&gt;&lt;font face=&quot;Georgia&quot;&gt;&lt;font style=&quot;font-size: 14px;&quot; color=&quot;#57290e&quot;&gt;Логин&lt;/font&gt;&lt;font style=&quot;font-size: 14px;&quot; color=&quot;#ff0000&quot;&gt;*&lt;/font&gt;&lt;/font&gt;&lt;/sup&gt;" style="fillColor=none;strokeColor=none;html=1;fontSize=11;fontStyle=0;align=left;fontColor=#596780;fontStyle=1;fontSize=11" parent="1" vertex="1">
                    <mxGeometry x="269" y="235" width="240" height="20" as="geometry"/>
                </mxCell>
                <mxCell id="KBLDiju2WBnaZNLSjC8g-15" value="&lt;font style=&quot;font-size: 14px;&quot; color=&quot;#57290e&quot;&gt;••••••••&lt;/font&gt;" style="rounded=1;arcSize=9;align=left;spacingLeft=5;strokeColor=#66CC00;html=1;strokeWidth=2;fontSize=12" parent="1" vertex="1">
                    <mxGeometry x="269" y="260" width="290" height="33" as="geometry"/>
                </mxCell>
                <mxCell id="KBLDiju2WBnaZNLSjC8g-16" value="&lt;font style=&quot;font-size: 14px;&quot;&gt;ВОЙТИ&lt;/font&gt;" style="strokeWidth=1;shadow=0;dashed=0;align=center;html=1;shape=mxgraph.mockup.buttons.button;strokeColor=#66CC00;fontColor=#57290E;mainText=;buttonStyle=round;fontSize=17;fontStyle=1;fillColor=#D4EBBC;whiteSpace=wrap;" parent="1" vertex="1">
                    <mxGeometry x="497" y="386" width="62" height="35" as="geometry"/>
                </mxCell>
                <mxCell id="KBLDiju2WBnaZNLSjC8g-17" value="" style="dashed=0;outlineConnect=0;html=1;align=center;labelPosition=center;verticalLabelPosition=bottom;verticalAlign=top;shape=mxgraph.webicons.vkontakte;fillColor=#5F94CC;gradientColor=#39587A" parent="1" vertex="1">
                    <mxGeometry x="395.5" y="386" width="35" height="35" as="geometry"/>
                </mxCell>
                <mxCell id="4UEEjsPfrM63260ZoVqT-1" value="" style="html=1;verticalLabelPosition=bottom;align=center;labelBackgroundColor=#ffffff;verticalAlign=top;strokeWidth=2;strokeColor=#66CC00;shadow=0;dashed=0;shape=mxgraph.ios7.icons.user;aspect=fixed;fillColor=none;" parent="1" vertex="1">
                    <mxGeometry x="727" y="10" width="79" height="79" as="geometry"/>
                </mxCell>
            </root>
        </mxGraphModel>
    </diagram>
</mxfile>